<svg width="35" height="27" viewBox="0 0 35 27" fill="none" xmlns="http://www.w3.org/2000/svg">
<path fill-rule="evenodd" clip-rule="evenodd" d="M14.5247 1.66792C14.6643 1.27638 14.9626 0.717975 15.1877 0.427783C15.4531 0.0863075 16.3273 -0.0573639 17.6684 0.0207805C19.3583 0.119275 19.8133 0.308939 20.1385 1.05131C20.3811 1.60321 21.2427 2.20069 22.3322 2.57228C26.5268 4.00127 29.4348 6.52265 31.1446 10.2125C31.9859 12.0286 33.1141 13.3237 33.883 13.3562C34.0506 13.3635 34.1882 12.0872 34.1882 10.5202C34.1882 8.89221 34.3628 7.67121 34.5952 7.67121C35.1614 7.67121 35.1219 17.1385 34.5504 18.3929C34.3018 18.9387 33.6147 19.6298 33.0242 19.9289C32.4332 20.2276 31.364 21.0534 30.6477 21.7633C29.9318 22.4731 28.5174 23.3705 27.5048 23.7572C26.4556 24.1577 25.5561 24.7987 25.414 25.2468C25.0148 26.5044 23.5081 26.8003 17.5011 26.8003C11.534 26.8003 9.81527 26.4588 9.48845 25.2085C9.37245 24.7645 8.5324 24.1524 7.49495 23.7564C6.50878 23.3795 5.12335 22.458 4.41638 21.7083C3.70901 20.9586 2.70412 20.2378 2.18316 20.1072C0.498171 19.6843 0 17.9659 0 12.5756C0 9.5772 0.158324 7.67121 0.407002 7.67121C0.639401 7.67121 0.814005 8.88936 0.814005 10.5117V13.3517L1.83151 12.8882C2.4526 12.6053 3.23323 11.5858 3.83396 10.2732C4.37568 9.09002 5.66466 7.27641 6.69804 6.24303C8.53769 4.40298 12.1063 2.39198 13.5454 2.38424C13.9443 2.3818 14.3851 2.05946 14.5247 1.66792ZM16.1055 5.4038C17.6965 6.99436 19.6436 5.62154 19.4551 3.04237C19.3351 1.39482 19.3009 1.36023 17.69 1.24179C16.7864 1.17545 15.9162 1.25156 15.7567 1.41151C15.2154 1.95241 15.4608 4.7587 16.1055 5.4038ZM17.5011 7.2642C16.2276 7.2642 14.6521 5.67242 14.6521 4.38548C14.6521 2.87468 14.1889 2.88038 11.088 4.42984C6.56088 6.69237 3.5279 11.322 3.50348 16.0078C3.48842 18.878 4.26905 20.6082 6.20068 21.9859C7.50513 22.9163 7.71188 22.9338 17.5011 22.9338C27.2903 22.9338 27.4971 22.9163 28.8015 21.9859C30.7332 20.6082 31.5138 18.878 31.4987 16.0078C31.4743 11.322 28.4413 6.69237 23.9142 4.42984C20.8133 2.88038 20.3501 2.87468 20.3501 4.38548C20.3501 5.67242 18.7746 7.2642 17.5011 7.2642ZM8.43228 21.3583C4.18399 19.5484 3.60645 13.6598 7.44774 11.3179C8.63334 10.5947 9.53851 10.5231 17.5011 10.5231C25.4637 10.5231 26.3689 10.5947 27.5545 11.3179C29.412 12.4502 30.2509 14.285 30.0185 16.7058C29.8036 18.9423 28.6786 20.4596 26.5699 21.3583C24.7148 22.1487 10.2874 22.1487 8.43228 21.3583ZM28.8553 14.8467C28.5427 13.9627 27.7702 12.8564 27.1389 12.3888C26.0783 11.602 25.3839 11.5304 17.9814 11.4396C9.33949 11.3338 7.97888 11.5764 6.77374 13.4384C5.71147 15.0803 5.57797 16.4531 6.32807 18.0331C7.50146 20.5064 8.29471 20.6953 17.5011 20.6953C26.7384 20.6953 27.4983 20.5113 28.6986 17.9822C29.3469 16.6159 29.3636 16.2842 28.8553 14.8467ZM1.41393 17.8259C2.32317 19.5838 2.67034 19.3685 2.52952 17.134C2.30933 13.6399 2.29224 13.5744 1.77941 14.2178C0.891742 15.3318 0.765979 16.5732 1.41393 17.8259ZM33.6921 17.7343C33.979 17.1462 34.0983 16.2056 33.9574 15.6444C33.8166 15.0827 33.4605 14.4238 33.1662 14.1796C32.7356 13.8222 32.6046 14.2549 32.4943 16.4026C32.3498 19.2061 32.7547 19.6566 33.6921 17.7343ZM17.5011 25.5793C22.7046 25.5793 24.0091 25.4641 24.4201 24.9688C24.8674 24.4299 24.0555 24.3583 17.5011 24.3583C10.9467 24.3583 10.1348 24.4299 10.5821 24.9688C10.9931 25.4641 12.2976 25.5793 17.5011 25.5793ZM11.4612 17.4523C12.3243 17.4523 13.0241 16.7525 13.0241 15.8894C13.0241 15.0262 12.3243 14.3265 11.4612 14.3265C10.598 14.3265 9.8983 15.0262 9.8983 15.8894C9.8983 16.7525 10.598 17.4523 11.4612 17.4523ZM24.7458 15.8894C24.7458 16.7525 24.046 17.4523 23.1829 17.4523C22.3197 17.4523 21.62 16.7525 21.62 15.8894C21.62 15.0262 22.3197 14.3265 23.1829 14.3265C24.046 14.3265 24.7458 15.0262 24.7458 15.8894ZM17.4523 19.7966C18.747 19.7966 19.7966 18.747 19.7966 17.4523H15.1079C15.1079 18.747 16.1575 19.7966 17.4523 19.7966Z" fill="white"/>
</svg>
