<svg width="223" height="40" viewBox="0 0 223 40" fill="none" xmlns="http://www.w3.org/2000/svg">
<path d="M4.05556 7.59636C4.83981 7.04822 6.02202 7.15334 6.72618 7.73486L5.91857 6.56099C5.26865 5.63407 5.50142 4.63123 6.42917 3.98048C7.35692 3.33222 9.98582 5.07509 9.98582 5.07509C9.33005 4.13899 9.45269 2.95261 10.3888 2.29601C11.3249 1.64191 12.6164 1.86801 13.2722 2.80577L21.9656 15.0868L20.8577 25.8285L11.611 22.4562L3.5458 10.4981C2.8842 9.55615 3.1128 8.25713 4.05556 7.59636Z" fill="#AE896E"/>
<path d="M2.24851 14.4285C2.24851 14.4285 1.30408 13.0519 2.68152 12.1083C4.05729 11.1647 5.00089 12.5405 5.00089 12.5405L9.38184 18.9296C9.53285 18.6776 9.69804 18.429 9.88242 18.1837L3.80199 9.31754C3.80199 9.31754 2.85839 7.94177 4.235 6.99817C5.61077 6.05456 6.55437 7.43034 6.55437 7.43034L12.2735 15.7709C12.4863 15.5974 12.704 15.423 12.9285 15.252L6.29824 5.58151C6.29824 5.58151 5.35464 4.20574 6.73124 3.26214C8.10701 2.31854 9.05062 3.69431 9.05062 3.69431L15.6809 13.3631C15.9245 13.2137 16.1656 13.0844 16.4075 12.9476L10.2103 3.9104C10.2103 3.9104 9.2667 2.53462 10.6425 1.59102C12.0182 0.647422 12.9618 2.02319 12.9618 2.02319L20.5107 13.0327C16.3825 15.8643 15.9895 21.1914 18.3481 24.6312C18.8195 25.3195 19.5078 24.8482 19.5078 24.8482C16.677 20.7192 17.5414 16.0796 21.6703 13.2488L20.4531 7.15668C20.4531 7.15668 19.9984 5.55148 21.6028 5.09595C23.208 4.64125 23.6635 6.24645 23.6635 6.24645L25.0693 10.4213C25.6266 12.0766 26.2198 13.726 27.0049 15.2862C29.2216 19.6913 27.8976 25.166 23.7177 28.0335C19.1582 31.1597 12.9251 29.9975 9.79815 25.4388L2.24851 14.4285Z" fill="#894F2C"/>
<path d="M10.0117 26.6978C6.67446 26.6978 3.30219 23.3255 3.30219 19.9883C3.30219 19.5269 2.96429 19.154 2.50292 19.154C2.04155 19.154 1.63358 19.5269 1.63358 19.9883C1.63358 24.9942 5.00584 28.3664 10.0117 28.3664C10.4731 28.3664 10.846 27.9584 10.846 27.4971C10.846 27.0357 10.4731 26.6978 10.0117 26.6978Z" fill="#AE896E"/>
<path d="M5.84015 28.3314C3.33723 28.3314 1.66861 26.6628 1.66861 24.1599C1.66861 23.6985 1.29568 23.3256 0.834307 23.3256C0.372935 23.3256 0 23.6985 0 24.1599C0 27.4971 2.50292 30 5.84015 30C6.30152 30 6.67445 29.6271 6.67445 29.1657C6.67445 28.7043 6.30152 28.3314 5.84015 28.3314ZM20.0234 1.63358C19.5628 1.63358 19.1891 2.00734 19.1891 2.46788C19.1891 2.92842 19.5628 3.30219 20.0234 3.30219C23.3606 3.30219 26.6978 6.29652 26.6978 9.97664C26.6978 10.4372 27.0716 10.8109 27.5321 10.8109C27.9927 10.8109 28.3664 10.4372 28.3664 9.97664C28.3664 5.37628 25.0292 1.63358 20.0234 1.63358Z" fill="#AE896E"/>
<path d="M24.1949 0C23.7344 0 23.3606 0.338729 23.3606 0.799266C23.3606 1.2598 23.7344 1.66861 24.1949 1.66861C26.6978 1.66861 28.3314 3.52495 28.3314 5.80511C28.3314 6.26564 28.7394 6.63941 29.2007 6.63941C29.6621 6.63941 30 6.26564 30 5.80511C30 2.60387 27.5321 0 24.1949 0Z" fill="#AE896E"/>
<path d="M194.74 9.05513C194.776 8.52012 194.989 8.01848 195.332 7.61085L195.646 5.80373C195.976 4.04142 197.606 2.82907 199.39 3.0197L219.938 6.30185C221.592 6.47931 222.881 7.81554 223 9.47419L221.453 19.267C221.185 21.1726 219.563 22.5949 217.639 22.6168C217.045 22.6239 216.552 22.6318 216.354 22.6406L208.023 23.0473C208.342 23.4716 208.745 23.9961 208.745 24.5566V24.6023C208.745 25.9912 207.189 27.2906 205.799 27.2906H199.402C198.734 27.2906 198.095 26.9392 197.623 26.4665L193.737 22.5378C193.224 22.0247 192.957 21.2938 193.006 20.5699L194.74 9.05513Z" fill="#894F2C"/>
<path d="M216.461 22.5659C216.878 22.5659 217.247 22.2689 217.325 21.8446L219.134 11.8892C219.221 11.4122 218.904 10.9545 218.427 10.8675C217.948 10.7823 217.493 11.0977 217.406 11.5747L215.596 21.5301C215.509 22.0071 215.826 22.464 216.303 22.5509C216.357 22.5615 216.409 22.5659 216.461 22.5659ZM211.031 22.5659C211.485 22.5659 211.87 22.2162 211.906 21.755L212.811 9.98899C212.849 9.50493 212.486 9.08324 212.003 9.04546C211.52 9.00681 211.097 9.37139 211.059 9.8537L210.154 21.6188C210.116 22.1029 210.479 22.5255 210.962 22.5624C210.985 22.565 211.009 22.5659 211.031 22.5659ZM204.7 23.5375C205.146 23.5375 205.365 23.5366 205.535 22.6045L205.574 22.6019C205.573 22.5536 205.568 22.507 205.559 22.4605C205.712 21.5222 205.83 19.7643 206.052 16.4716C206.258 13.4056 206.479 9.83701 206.479 9.01735C206.479 8.53241 206.086 8.13883 205.6 8.13883C205.114 8.13883 204.721 8.53241 204.721 9.01735C204.721 10.3641 204.023 20.7227 203.86 22.3225C203.832 22.4077 203.817 22.4982 203.817 22.5931C203.817 22.8268 203.911 23.0825 204.076 23.2467C204.24 23.411 204.466 23.5375 204.7 23.5375Z" fill="#AE896E"/>
<path d="M201.561 24.3765H207.41C207.895 24.3765 208.288 23.9838 208.288 23.498C208.288 23.0122 207.895 22.6195 207.41 22.6195H201.561C200.28 22.6195 199.238 21.5775 199.238 20.2967V9.01735C199.238 8.53241 198.845 8.13883 198.359 8.13883C197.873 8.13883 197.481 8.53241 197.481 9.01735V20.2967C197.482 22.5466 199.312 24.3765 201.561 24.3765Z" fill="#AE896E"/>
<path d="M55.625 28.3203L45.9375 29.5703L44.7656 25.1562H40.3125L39.3359 29.5703L29.375 28.5938L37.1484 2.57812L48.0078 2.03125L55.625 28.3203ZM44.0625 19.1797L42.5781 12.3828L41.1328 19.1797H44.0625Z" fill="#894F2C"/>
<path d="M66.582 2.5L64.4336 29.1016L56.1914 29.5312V3.04688L66.582 2.5Z" fill="#894F2C"/>
<path d="M98.5156 11.2109C98.5156 12.474 98.3268 13.5938 97.9492 14.5703C97.5716 15.5469 97.0508 16.3997 96.3867 17.1289C95.7357 17.8581 94.9674 18.4766 94.082 18.9844C93.1966 19.4922 92.2461 19.9089 91.2305 20.2344C90.2279 20.5469 89.1862 20.7812 88.1055 20.9375C87.0247 21.0807 85.9635 21.1589 84.9219 21.1719V30.2734H75.8203C75.8203 27.2917 75.8268 24.3229 75.8398 21.3672C75.8529 18.4115 75.8724 15.4297 75.8984 12.4219C75.9245 10.8333 75.931 9.24479 75.918 7.65625C75.9049 6.06771 75.9375 4.46615 76.0156 2.85156C77.6823 2.35677 79.349 1.98568 81.0156 1.73828C82.6823 1.49089 84.401 1.36719 86.1719 1.36719C87.1745 1.36719 88.1771 1.45182 89.1797 1.62109C90.1823 1.77734 91.1393 2.03125 92.0508 2.38281C92.9753 2.73438 93.8281 3.17708 94.6094 3.71094C95.4036 4.23177 96.0872 4.85677 96.6602 5.58594C97.2331 6.3151 97.6823 7.14844 98.0078 8.08594C98.3464 9.01042 98.5156 10.0521 98.5156 11.2109ZM89.8438 11.875C89.8438 11.0286 89.5833 10.3711 89.0625 9.90234C88.5547 9.42057 87.8906 9.17969 87.0703 9.17969C86.7969 9.17969 86.5104 9.20573 86.2109 9.25781C85.9245 9.29688 85.651 9.34896 85.3906 9.41406L85.1562 15.1172C85.3385 15.1432 85.5143 15.1562 85.6836 15.1562C85.8529 15.1562 86.0286 15.1562 86.2109 15.1562C86.6797 15.1562 87.1289 15.0781 87.5586 14.9219C88.0013 14.7656 88.3919 14.5443 88.7305 14.2578C89.069 13.9583 89.3359 13.6133 89.5312 13.2227C89.7396 12.819 89.8438 12.3698 89.8438 11.875Z" fill="#894F2C"/>
<path d="M122.148 28.3203L112.461 29.5703L111.289 25.1562H106.836L105.859 29.5703L95.8984 28.5938L103.672 2.57812L114.531 2.03125L122.148 28.3203ZM110.586 19.1797L109.102 12.3828L107.656 19.1797H110.586Z" fill="#894F2C"/>
<path d="M145.449 11.1719C145.449 12.1875 145.358 13.112 145.176 13.9453C145.007 14.7656 144.733 15.5208 144.355 16.2109C143.978 16.901 143.49 17.5391 142.891 18.125C142.292 18.7109 141.569 19.2708 140.723 19.8047L145.371 28.0859L136.582 29.8047L133.574 21.4844L131.152 21.5625L130.801 29.6875H122.402C122.467 26.7188 122.526 23.763 122.578 20.8203C122.643 17.8776 122.715 14.9219 122.793 11.9531C122.819 10.4557 122.845 8.97135 122.871 7.5C122.897 6.02865 122.949 4.54427 123.027 3.04688C123.939 2.70833 124.837 2.42839 125.723 2.20703C126.608 1.98568 127.493 1.81641 128.379 1.69922C129.277 1.56901 130.182 1.48438 131.094 1.44531C132.018 1.39323 132.962 1.36719 133.926 1.36719C135.41 1.36719 136.842 1.57552 138.223 1.99219C139.616 2.39583 140.846 3.00781 141.914 3.82812C142.982 4.64844 143.835 5.67057 144.473 6.89453C145.124 8.11849 145.449 9.54427 145.449 11.1719ZM136.699 11.7969C136.699 11.25 136.621 10.7487 136.465 10.293C136.322 9.83724 136.1 9.44661 135.801 9.12109C135.514 8.78255 135.15 8.52214 134.707 8.33984C134.277 8.14453 133.77 8.04688 133.184 8.04688C132.923 8.04688 132.669 8.06641 132.422 8.10547C132.174 8.13151 131.934 8.17708 131.699 8.24219L131.387 15.5078H131.855C132.415 15.5078 132.982 15.4362 133.555 15.293C134.141 15.1497 134.661 14.9284 135.117 14.6289C135.586 14.3294 135.964 13.9453 136.25 13.4766C136.549 13.0078 136.699 12.4479 136.699 11.7969Z" fill="#894F2C"/>
<path d="M162.109 35.7031C162.109 36.4583 161.986 37.0964 161.738 37.6172C161.504 38.138 161.172 38.5612 160.742 38.8867C160.312 39.2253 159.805 39.4661 159.219 39.6094C158.633 39.7656 157.995 39.8438 157.305 39.8438C157.057 39.8438 156.777 39.8242 156.465 39.7852C156.152 39.7591 155.833 39.707 155.508 39.6289C155.195 39.5638 154.889 39.4727 154.59 39.3555C154.29 39.2513 154.036 39.1146 153.828 38.9453L155.547 35.8594C155.703 35.9375 155.885 36.0026 156.094 36.0547C156.302 36.1068 156.497 36.1328 156.68 36.1328C156.914 36.1328 157.148 36.0612 157.383 35.918C157.617 35.7878 157.734 35.5859 157.734 35.3125C157.734 35.1172 157.676 34.9544 157.559 34.8242C157.441 34.707 157.292 34.6094 157.109 34.5312C156.94 34.4531 156.758 34.401 156.562 34.375C156.367 34.349 156.198 34.3359 156.055 34.3359C155.794 34.3359 155.534 34.349 155.273 34.375C155.013 34.4141 154.753 34.4661 154.492 34.5312L154.688 30C153.346 29.6094 152.135 29.0169 151.055 28.2227C149.974 27.4154 149.049 26.4648 148.281 25.3711C147.526 24.2643 146.94 23.0404 146.523 21.6992C146.107 20.3451 145.898 18.9323 145.898 17.4609C145.898 15.3255 146.198 13.3333 146.797 11.4844C147.409 9.63542 148.301 8.03385 149.473 6.67969C150.658 5.3125 152.116 4.24479 153.848 3.47656C155.592 2.69531 157.591 2.30469 159.844 2.30469C160.742 2.30469 161.654 2.3763 162.578 2.51953C163.503 2.66276 164.388 2.92969 165.234 3.32031L164.531 11.5625C164.154 11.4583 163.783 11.3867 163.418 11.3477C163.053 11.3086 162.682 11.2891 162.305 11.2891C161.38 11.2891 160.495 11.4062 159.648 11.6406C158.815 11.875 158.073 12.2331 157.422 12.7148C156.784 13.1966 156.27 13.8086 155.879 14.5508C155.501 15.2799 155.312 16.1458 155.312 17.1484C155.312 17.8776 155.417 18.5156 155.625 19.0625C155.846 19.5964 156.152 20.0456 156.543 20.4102C156.947 20.7617 157.428 21.0286 157.988 21.2109C158.561 21.3932 159.193 21.4844 159.883 21.4844C160.365 21.4844 160.859 21.4388 161.367 21.3477C161.875 21.2435 162.383 21.1068 162.891 20.9375C163.398 20.7682 163.887 20.5729 164.355 20.3516C164.824 20.1302 165.26 19.8958 165.664 19.6484L165.352 28.8281C164.844 29.0885 164.297 29.3229 163.711 29.5312C163.125 29.7266 162.52 29.8958 161.895 30.0391C161.283 30.1953 160.664 30.3125 160.039 30.3906C159.427 30.4688 158.841 30.5078 158.281 30.5078H158.086V31.8359C158.659 31.862 159.193 31.9661 159.688 32.1484C160.182 32.3307 160.605 32.5846 160.957 32.9102C161.322 33.2487 161.602 33.6523 161.797 34.1211C162.005 34.5898 162.109 35.1172 162.109 35.7031Z" fill="#894F2C"/>
<path d="M191.758 28.3203L182.07 29.5703L180.898 25.1562H176.445L175.469 29.5703L165.508 28.5938L173.281 2.57812L184.141 2.03125L191.758 28.3203ZM180.195 19.1797L178.711 12.3828L177.266 19.1797H180.195Z" fill="#894F2C"/>
</svg>
