<svg width="40" height="18" viewBox="0 0 40 18" fill="none" xmlns="http://www.w3.org/2000/svg">
<path d="M6.99733 1.44318L10.7387 6.89946L10.7388 6.89954L11.038 7.33609C8.80418 9.18418 8.66658 12.3074 10.0721 14.3575C10.1889 14.528 10.3391 14.6534 10.5153 14.7242C10.688 14.7937 10.8535 14.7979 10.9852 14.7798C11.1147 14.762 11.2213 14.7214 11.2925 14.6883C11.3292 14.6712 11.3595 14.6547 11.3823 14.6414C11.3853 14.6396 11.3882 14.6379 11.391 14.6362C11.3988 14.6316 11.4056 14.6273 11.4114 14.6236L11.422 14.6168L11.4263 14.6139L11.4281 14.6127L11.429 14.6121L11.4294 14.6118C11.4296 14.6116 11.4298 14.6115 11.1473 14.199L11.4298 14.6115L11.8426 14.3288L11.5597 13.9162C10.8151 12.8302 10.5767 11.7103 10.7653 10.6983C10.954 9.6863 11.5798 8.72768 12.6658 7.98314L12.938 7.79648L12.8733 7.47279L12.1778 3.99158L12.1739 3.97225L12.1699 3.95822L12.1676 3.94796C12.165 3.93542 12.1612 3.91414 12.1581 3.88679C12.1518 3.82971 12.1505 3.75947 12.1634 3.69151C12.1759 3.62569 12.1994 3.57255 12.2354 3.53026C12.269 3.49086 12.3359 3.43422 12.4807 3.39306C12.6258 3.35195 12.7126 3.36506 12.762 3.38097C12.8149 3.39804 12.8628 3.43094 12.9079 3.48041C12.9546 3.5315 12.9904 3.59193 13.0149 3.64386C13.0267 3.66874 13.0346 3.68888 13.0389 3.70093L13.0424 3.71087L13.0443 3.71754L13.0481 3.72898L13.8514 6.1146C13.8514 6.11461 13.8514 6.11462 13.8514 6.11462C14.1711 7.06403 14.5193 8.03477 14.9847 8.95972L15.4314 8.73497L14.9847 8.95973C16.1405 11.2565 15.4496 14.1116 13.2702 15.6068C10.8926 17.237 7.642 16.631 6.0113 14.2537C6.01128 14.2537 6.01127 14.2537 6.01125 14.2537L1.70007 7.96628L1.6946 7.95726C1.68812 7.9462 1.67765 7.92727 1.66602 7.90232C1.64175 7.85025 1.61815 7.78411 1.60868 7.71564C1.59951 7.64934 1.60482 7.59159 1.62551 7.54008C1.64481 7.49205 1.69024 7.4169 1.81485 7.33153L1.81509 7.33138C1.93947 7.24606 2.02587 7.23079 2.07761 7.23011C2.13312 7.22938 2.18891 7.24524 2.24744 7.27767C2.30788 7.31116 2.36106 7.35697 2.40087 7.39833C2.41994 7.41815 2.43382 7.43472 2.44179 7.44474L2.44821 7.45305L4.94866 11.0997L5.38932 11.7423L5.7899 11.074C5.86804 10.9436 5.95279 10.8161 6.04675 10.6911L6.26254 10.4041L6.05943 10.1079L2.58781 5.04577L2.58236 5.03679C2.57589 5.02575 2.56543 5.00684 2.55382 4.98192C2.52959 4.9299 2.50603 4.86382 2.49657 4.79541C2.48742 4.72917 2.49272 4.67143 2.51342 4.61992C2.53272 4.57188 2.57815 4.49674 2.70267 4.41138L2.70279 4.4113C2.82718 4.32599 2.91357 4.31072 2.96532 4.31004C3.02082 4.3093 3.07661 4.32517 3.13514 4.3576C3.19558 4.39109 3.24876 4.4369 3.28857 4.47826C3.30765 4.49807 3.32152 4.51464 3.3295 4.52466L3.33591 4.53297L6.60107 9.29472L6.90838 9.74289L7.32947 9.39941C7.44887 9.30203 7.5686 9.20619 7.69075 9.1131L8.06896 8.82488L7.80007 8.43268L4.01424 2.91091L4.00879 2.90192C4.00232 2.89087 3.99186 2.87197 3.98025 2.84705C3.95602 2.79503 3.93245 2.72895 3.923 2.66053C3.91385 2.59429 3.91915 2.53656 3.93985 2.48505C3.95915 2.43701 4.00457 2.36187 4.1291 2.27651L4.12922 2.27643C4.2536 2.19112 4.33999 2.17585 4.39174 2.17516C4.44725 2.17443 4.50304 2.1903 4.56157 2.22272C4.62201 2.25621 4.67519 2.30203 4.715 2.34339C4.73407 2.3632 4.74794 2.37977 4.75592 2.38979L4.76234 2.3981L8.54811 7.91884L8.81677 8.31063L9.22178 8.06235C9.31343 8.00617 9.4004 7.95768 9.49702 7.90381C9.53668 7.88171 9.57795 7.85869 9.62184 7.83387L10.0964 7.5655L9.78807 7.11587L6.2497 1.95598L6.24424 1.94698C6.23777 1.93593 6.22731 1.91702 6.21569 1.89209C6.19145 1.84006 6.16786 1.77395 6.15839 1.7055C6.14922 1.63922 6.15451 1.58146 6.17518 1.52994C6.19446 1.48191 6.23982 1.40682 6.3642 1.32151C6.48859 1.23619 6.57498 1.22092 6.62673 1.22024C6.68224 1.21951 6.73803 1.23537 6.79655 1.2678C6.857 1.30129 6.91018 1.3471 6.94999 1.38846C6.96906 1.40828 6.98293 1.42485 6.99091 1.43487L6.99733 1.44318Z" stroke="white"/>
<path d="M5.72096 15.2559C3.81398 15.2559 1.88697 13.3289 1.88697 11.4219C1.88697 11.1583 1.69388 10.9452 1.43024 10.9452C1.1666 10.9452 0.933472 11.1583 0.933472 11.4219C0.933472 14.2824 2.86048 16.2094 5.72096 16.2094C5.9846 16.2094 6.19771 15.9763 6.19771 15.7127C6.19771 15.449 5.9846 15.2559 5.72096 15.2559Z" fill="white"/>
<path d="M3.33723 16.1894C1.90699 16.1894 0.953493 15.2359 0.953493 13.8056C0.953493 13.542 0.740388 13.3289 0.476747 13.3289C0.213106 13.3289 0 13.542 0 13.8056C0 15.7126 1.43024 17.1429 3.33723 17.1429C3.60087 17.1429 3.81397 16.9298 3.81397 16.6661C3.81397 16.4025 3.60087 16.1894 3.33723 16.1894ZM11.4419 0.933472C11.1788 0.933472 10.9652 1.14705 10.9652 1.41022C10.9652 1.67338 11.1788 1.88697 11.4419 1.88697C13.3489 1.88697 15.2559 3.59801 15.2559 5.70094C15.2559 5.9641 15.4695 6.17769 15.7326 6.17769C15.9958 6.17769 16.2094 5.9641 16.2094 5.70094C16.2094 3.07216 14.3024 0.933472 11.4419 0.933472Z" fill="white"/>
<path d="M13.8257 0C13.5625 0 13.3489 0.193559 13.3489 0.456723C13.3489 0.719887 13.5625 0.953493 13.8257 0.953493C15.2559 0.953493 16.1894 2.01425 16.1894 3.3172C16.1894 3.58037 16.4225 3.79395 16.6862 3.79395C16.9498 3.79395 17.1429 3.58037 17.1429 3.3172C17.1429 1.48793 15.7327 0 13.8257 0Z" fill="white"/>
<path d="M24.3502 5.77937L24.3488 5.7999L24.3457 5.82025L23.3582 12.3774C23.3456 12.6447 23.4476 12.9124 23.6319 13.0969L23.6335 13.0985L25.8528 15.3419C25.853 15.3421 25.8532 15.3424 25.8535 15.3426C26.0614 15.5507 26.3066 15.666 26.5155 15.666L30.1711 15.666C30.4219 15.666 30.7291 15.5427 30.979 15.3213C31.2304 15.0986 31.3544 14.8407 31.3544 14.6299V14.6038C31.3544 14.5621 31.3386 14.4933 31.2789 14.3854C31.219 14.2772 31.1393 14.1712 31.0437 14.044L31.042 14.0417L30.4755 13.2879L31.4173 13.2419L36.1779 13.0095L36.1801 13.0094C36.3032 13.0039 36.5946 12.9993 36.9308 12.9954L36.931 12.9954C37.784 12.9856 38.5022 12.3551 38.6208 11.5115L38.6208 11.5115L38.6221 11.5031L39.4965 5.96795C39.4231 5.28617 38.8837 4.74331 38.1971 4.66962L38.1843 4.66825L38.1716 4.66622L26.4433 2.7929C25.6892 2.71845 25.0021 3.232 24.8609 3.97689L24.6823 5.00597L24.6592 5.13891L24.5724 5.24219C24.4406 5.39897 24.3632 5.58608 24.3502 5.77937Z" stroke="white"/>
<path d="M36.2635 13.4662C36.5014 13.4662 36.7128 13.2965 36.757 13.054L37.7911 7.36525C37.8408 7.09266 37.6596 6.83111 37.387 6.78141C37.1129 6.73272 36.8529 6.91294 36.8032 7.18553L35.769 12.8743C35.7193 13.1469 35.9005 13.408 36.1731 13.4577C36.2038 13.4637 36.2339 13.4662 36.2635 13.4662ZM33.1606 13.4662C33.4201 13.4662 33.64 13.2664 33.6606 13.0028L34.1776 6.2794C34.1992 6.0028 33.9919 5.76183 33.7158 5.74024C33.4402 5.71815 33.1982 5.92649 33.1766 6.20209L32.6596 12.925C32.638 13.2016 32.8453 13.4431 33.1214 13.4642C33.1345 13.4657 33.148 13.4662 33.1606 13.4662ZM29.5426 14.0214C29.7976 14.0214 29.9226 14.0209 30.02 13.4883L30.0421 13.4868C30.0416 13.4592 30.0386 13.4326 30.0335 13.406C30.1209 12.8698 30.1887 11.8653 30.3152 9.98375C30.4331 8.23173 30.5591 6.19256 30.5591 5.72418C30.5591 5.44707 30.3347 5.22217 30.0571 5.22217C29.7795 5.22217 29.5551 5.44707 29.5551 5.72418C29.5551 6.49376 29.156 12.413 29.0626 13.3271C29.0466 13.3758 29.038 13.4275 29.038 13.4818C29.038 13.6153 29.0923 13.7614 29.1861 13.8553C29.28 13.9491 29.409 14.0214 29.5426 14.0214Z" fill="white"/>
<path d="M27.7489 14.5008H31.0913C31.3684 14.5008 31.5933 14.2764 31.5933 13.9988C31.5933 13.7212 31.3684 13.4968 31.0913 13.4968H27.7489C27.017 13.4968 26.4216 12.9014 26.4216 12.1695V5.72418C26.4216 5.44707 26.1972 5.22217 25.9196 5.22217C25.642 5.22217 25.4176 5.44707 25.4176 5.72418V12.1695C25.4181 13.4552 26.4638 14.5008 27.7489 14.5008Z" fill="white"/>
</svg>
