<svg width="100" height="101" viewBox="0 0 100 101" fill="none" xmlns="http://www.w3.org/2000/svg">
<path fill-rule="evenodd" clip-rule="evenodd" d="M47.6929 0.0556937C47.5185 0.0977592 46.6624 0.247842 45.7904 0.389258C41.2391 1.12741 36.5324 3.67481 33.16 7.22502C30.6745 9.84175 28.7587 13.0924 27.7874 16.3412C27.5441 17.155 27.286 17.8849 27.2139 17.9631C27.1418 18.0416 25.7036 18.3496 24.0178 18.648C11.4277 20.8758 3.06133 24.7325 0.59024 29.447C-0.173281 30.9039 -0.199493 33.2243 0.531687 34.626C2.88841 39.1439 10.226 42.7307 21.9154 45.0791C25.0043 45.6998 25.3279 45.8099 26.3758 46.5986C30.7785 49.9125 36.6964 52.2677 43.3595 53.3582C46.5136 53.8744 53.4309 53.8895 56.5814 53.3868C63.1053 52.3459 68.9396 50.06 73.3537 46.8155C74.7827 45.7651 74.8767 45.7311 78.2155 45.0569C89.6337 42.7514 97.1691 39.1156 99.395 34.8373C99.9036 33.8599 100 33.4221 100 32.0893C100 30.7606 99.9032 30.3186 99.4026 29.3591C97.4627 25.6413 91.7501 22.4536 82.8884 20.1444C80.5384 19.532 78.8199 19.1691 73.6148 18.1868C72.8026 18.0335 72.7918 18.0185 72.2021 16.2057C69.5824 8.15363 63.0624 2.2505 54.8161 0.464512C53.4199 0.16202 48.4374 -0.123772 47.6929 0.0556937ZM53.4626 3.23365C61.2543 4.59243 67.6059 10.4216 69.7183 18.1521C70.1335 19.6713 70.2053 20.4406 70.2053 23.3592C70.2053 25.3679 70.1176 26.8713 69.9933 26.9956C69.7213 27.2677 64.1682 28.385 61.0101 28.8036C54.3536 29.6853 45.9297 29.6861 39.1318 28.8055C35.9196 28.3893 30.3219 27.2746 30.0429 26.9956C29.9186 26.8713 29.8309 25.3679 29.8309 23.3592C29.8309 20.4406 29.9027 19.6713 30.3179 18.1521C33.1223 7.88855 43.1375 1.43308 53.4626 3.23365ZM27.1799 28.0278C27.3465 28.748 27.6024 29.253 27.9001 29.4479C28.4577 29.8134 31.8752 30.6369 35.2918 31.2294C40.2257 32.0851 43.9281 32.3724 50.0181 32.3724C56.0929 32.3724 59.7682 32.0883 64.7444 31.2337C68.3995 30.6061 71.7271 29.7787 72.2158 29.376C72.8104 28.886 73.2704 26.275 73.2704 23.3898C73.2704 21.2802 73.304 21.0785 73.6403 21.1743C73.8437 21.2322 75.1042 21.4825 76.4412 21.7304C86.78 23.6473 95.0344 27.278 96.765 30.6701C99.2481 35.5375 87.7898 41.0489 70.311 43.3948C54.6447 45.4975 36.859 45.0519 22.6763 42.2016C9.01751 39.4563 1.16838 34.7921 3.27123 30.6701C5.01389 27.2541 13.412 23.5927 23.9182 21.6683L26.6601 21.1663L26.7907 24.0383C26.8626 25.618 27.0376 27.4133 27.1799 28.0278ZM81.7258 35.9167C77.3448 37.1763 70.9509 38.3856 66.6549 38.7674C64.7191 38.9393 63.9695 39.3806 63.9695 40.3488C63.9695 41.2193 64.6364 41.813 65.6141 41.813C68.8696 41.813 77.9355 40.1283 83.9453 38.4064C85.4963 37.962 86.3763 37.2744 86.3763 36.5071C86.3763 35.9716 85.4572 35.0413 84.9589 35.0724C84.7503 35.0855 83.2953 35.4654 81.7258 35.9167ZM36.0667 47.0953C37.4037 47.2127 41.0609 47.419 44.1938 47.5542C50.2405 47.8153 58.8185 47.5866 64.815 47.0044C66.3846 46.852 67.6964 46.751 67.73 46.7799C67.8579 46.8901 63.7915 48.5623 62.1727 49.0654C52.7771 51.9859 41.8694 51.3497 33.6358 47.401C32.3988 46.8078 32.2774 46.707 32.8959 46.7869C33.3029 46.8396 34.7297 46.9782 36.0667 47.0953ZM24.5534 53.725C24.2385 53.9552 23.2667 58.2983 19.5521 76.0789C17.0163 88.2164 14.9386 98.4085 14.935 98.7284C14.9211 99.9324 16.2915 100.554 17.2495 99.7781C17.6589 99.4466 18.2743 96.7225 22.3462 77.2136C24.8931 65.0104 26.9772 54.8593 26.9772 54.6553C26.9772 53.6867 25.422 53.0898 24.5534 53.725ZM73.4818 53.862C73.2493 54.0945 73.059 54.4519 73.059 54.6563C73.059 54.8605 75.1426 65.0115 77.689 77.2136C81.7645 96.7424 82.375 99.4447 82.7857 99.7775C83.7447 100.554 85.1151 99.933 85.1012 98.7284C85.0976 98.4087 83.0193 88.216 80.4828 76.0781C76.7743 58.3306 75.795 53.9533 75.4817 53.7241C74.9152 53.3098 73.9686 53.3751 73.4818 53.862ZM38.196 56.5328C37.955 56.8391 37.7607 57.2911 37.7646 57.5369C37.7681 57.7827 37.1807 67.1441 36.459 78.3399C35.5571 92.3289 35.2091 98.8734 35.3463 99.2632C35.8133 100.591 37.709 100.32 38.0237 98.8799C38.1839 98.1466 40.7263 59.1741 40.7203 57.5411C40.7165 56.5049 40.2329 55.9758 39.2891 55.9758C38.8331 55.9758 38.5008 56.1451 38.196 56.5328ZM59.6782 56.3521C59.4704 56.5819 59.3178 57.0983 59.3161 57.5779C59.3104 59.195 61.8533 98.1589 62.0119 98.8799C62.3114 100.244 64.1052 100.594 64.6516 99.3944C64.8452 98.9696 64.6163 94.4692 63.564 77.9974C62.0915 54.951 62.2437 56.1462 60.767 56.0183C60.2626 55.9748 59.9263 56.0779 59.6782 56.3521Z" fill="#A8A29E"/>
</svg>
